<?xml version="1.0" standalone="no"?><!DOCTYPE svg PUBLIC "-//W3C//DTD SVG 1.1//EN" "http://www.w3.org/Graphics/SVG/1.1/DTD/svg11.dtd"><svg t="1537381373034" class="icon" style="" viewBox="0 0 1137 1024" version="1.1" xmlns="http://www.w3.org/2000/svg" p-id="4267" xmlns:xlink="http://www.w3.org/1999/xlink" width="222.0703125" height="200"><defs><style type="text/css"></style></defs><path d="M1083.733333 238.933333c-28.444444 0-54.044444 25.6-54.044444 54.044445 0 11.377778 2.844444 19.911111 5.688889 28.444444l-162.133334 150.755556L594.488889 142.222222c-8.533333 2.844444-17.066667 5.688889-25.6 5.688889s-17.066667-2.844444-25.6-5.688889L261.688889 469.333333l-162.133333-150.755555c5.688889-8.533333 5.688889-17.066667 5.688888-28.444445 0-31.288889-22.755556-54.044444-54.044444-54.044444s-51.2 25.6-51.2 56.888889 22.755556 54.044444 54.044444 54.044444h5.688889c54.044444 324.266667 91.022222 512 110.933334 568.888889 22.755556 62.577778 73.955556 96.711111 156.444444 105.244445h483.555556c82.488889-8.533333 136.533333-45.511111 156.444444-105.244445 19.911111-56.888889 56.888889-247.466667 110.933333-568.888889h5.688889c28.444444 0 54.044444-25.6 54.044445-54.044444s-22.755556-54.044444-54.044445-54.044445z" p-id="4268"></path><path d="M594.488889 142.222222c25.6-11.377778 45.511111-36.977778 45.511111-68.266666C640 34.133333 608.711111 0 568.888889 0s-71.111111 34.133333-71.111111 73.955556c0 31.288889 17.066667 56.888889 45.511111 68.266666 8.533333 2.844444 17.066667 5.688889 25.6 5.688889s17.066667-2.844444 25.6-5.688889z" p-id="4269"></path></svg>